<svg width="408" height="302" viewBox="0 0 408 302" fill="none" xmlns="http://www.w3.org/2000/svg">
<rect x="221.5" y="97.5" width="28" height="48" stroke="#5C77AD"/>
<path d="M236 98V145.5" stroke="#5C77AD" stroke-linecap="round"/>
<path d="M222 122H249.5" stroke="#5C77AD" stroke-linecap="round"/>
<rect x="217.5" y="144.5" width="36" height="5" fill="white" stroke="#5C77AD"/>
<path d="M66.5 270.626V131.626L153.5 69.6259L239.5 131.626V270.626H66.5Z" fill="#EDF6F9" stroke="#3C4F76" stroke-width="2"/>
<path d="M211 109.626V74.1259L286 15.6259L366.5 74.1259V270.626H239.5" stroke="#5C77AD"/>
<path d="M49.5 141.5L153.5 67.5L255 141.5C259.76 147.484 253.498 155.899 246.399 153.06L245 152.5L153.5 86L59 153L57.7863 153.427C50.57 155.966 44.6027 147.377 49.5 141.5Z" fill="#5C77AD" stroke="#3C4F76" stroke-width="2" stroke-linecap="round"/>
<path d="M184.5 75L288.5 1L390 75C394.76 80.9838 388.498 89.3994 381.399 86.5597L380 86L288.5 19.5L194 86.5L192.786 86.9271C185.57 89.4661 179.603 80.8768 184.5 75Z" fill="white" stroke="#5C77AD" stroke-linecap="round"/>
<rect x="270.5" y="200.5" width="37" height="70" stroke="#5C77AD"/>
<path opacity="0.5" d="M288.5 1.5V271" stroke="#5C77AD" stroke-linecap="round" stroke-dasharray="2 2"/>
<path opacity="0.5" d="M270 159V271" stroke="#5C77AD" stroke-linecap="round" stroke-dasharray="2 2"/>
<path opacity="0.5" d="M405 75L289 75" stroke="#5C77AD" stroke-linecap="round" stroke-dasharray="2 2"/>
<path opacity="0.5" d="M367 75L211 75" stroke="#5C77AD" stroke-linecap="round"/>
<path opacity="0.5" d="M394 20L289 20" stroke="#5C77AD" stroke-linecap="round" stroke-dasharray="2 2"/>
<path opacity="0.5" d="M405 1L289 1" stroke="#5C77AD" stroke-linecap="round" stroke-dasharray="2 2"/>
<path opacity="0.5" d="M382 150H356" stroke="#5C77AD" stroke-linecap="round" stroke-dasharray="2 2"/>
<path opacity="0.5" d="M394 144H356" stroke="#5C77AD" stroke-linecap="round" stroke-dasharray="2 2"/>
<path opacity="0.5" d="M394 271H356" stroke="#5C77AD" stroke-linecap="round" stroke-dasharray="2 2"/>
<path opacity="0.5" d="M327 288V201" stroke="#5C77AD" stroke-linecap="round" stroke-dasharray="2 2"/>
<path opacity="0.5" d="M323 301V201" stroke="#5C77AD" stroke-linecap="round" stroke-dasharray="2 2"/>
<path opacity="0.5" d="M367 301V201" stroke="#5C77AD" stroke-linecap="round" stroke-dasharray="2 2"/>
<path opacity="0.5" d="M289 170L294 172.887V167.113L289 170ZM367 170L362 167.113V172.887L367 170ZM293.5 170.5H362.5V169.5H293.5V170.5Z" fill="#5C77AD"/>
<path opacity="0.5" d="M270 182L275 184.887V179.113L270 182ZM367 182L362 179.113V184.887L367 182ZM274.5 182.5L362.5 182.5V181.5L274.5 181.5V182.5Z" fill="#5C77AD"/>
<path opacity="0.5" d="M327 195L332 197.887V192.113L327 195ZM356 195L351 192.113V197.887L356 195ZM331.5 195.5H351.5V194.5H331.5V195.5Z" fill="#5C77AD"/>
<path opacity="0.5" d="M328 285L333 287.887V282.113L328 285ZM367 285L362 282.113V287.887L367 285ZM332.5 285.5H362.5V284.5H332.5V285.5Z" fill="#5C77AD"/>
<path opacity="0.5" d="M323 299L328 301.887V296.113L323 299ZM367 299L362 296.113V301.887L367 299ZM327.5 299.5H362.5V298.5H327.5V299.5Z" fill="#5C77AD"/>
<path opacity="0.5" d="M263 201L260.113 206H265.887L263 201ZM263 271L265.887 266H260.113L263 271ZM262.5 205.5V266.5H263.5V205.5H262.5Z" fill="#5C77AD"/>
<path opacity="0.5" d="M375 150L372.113 155L377.887 155L375 150ZM375 271L377.887 266L372.113 266L375 271ZM374.5 154.5L374.5 266.5L375.5 266.5L375.5 154.5L374.5 154.5Z" fill="#5C77AD"/>
<path opacity="0.5" d="M391 144L388.074 148.977L393.847 149.023L391 144ZM390 271L392.926 266.023L387.153 265.977L390 271ZM390.465 148.496L389.535 266.496L390.535 266.504L391.465 148.504L390.465 148.496Z" fill="#5C77AD"/>
<path opacity="0.5" d="M337 253L334.113 258H339.887L337 253ZM337 271L339.887 266H334.113L337 271ZM336.5 257.5V266.5H337.5V257.5H336.5Z" fill="#5C77AD"/>
<path opacity="0.5" d="M323 201L320.113 206H325.887L323 201ZM323 247L325.887 242H320.113L323 247ZM322.5 205.5V242.5H323.5V205.5H322.5Z" fill="#5C77AD"/>
<path opacity="0.5" d="M394 75L396.887 70L391.113 70L394 75ZM394 23L391.113 28L396.887 28L394 23ZM394.5 70.5L394.5 27.5L393.5 27.5L393.5 70.5L394.5 70.5Z" fill="#5C77AD"/>
<path opacity="0.5" d="M405 75L407.887 70L402.113 70L405 75ZM405 0.999999L402.113 6L407.887 6L405 0.999999ZM405.5 70.5L405.5 5.5L404.5 5.5L404.5 70.5L405.5 70.5Z" fill="#5C77AD"/>
<rect x="327.5" y="200.5" width="28" height="48" stroke="#5C77AD"/>
<path d="M342 201V248.5" stroke="#5C77AD" stroke-linecap="round"/>
<path d="M328 225H355.5" stroke="#5C77AD" stroke-linecap="round"/>
<rect x="323.5" y="247.5" width="36" height="5" fill="white" stroke="#5C77AD"/>
<rect x="327.5" y="97.5" width="28" height="48" stroke="#5C77AD"/>
<path d="M342 98V145.5" stroke="#5C77AD" stroke-linecap="round"/>
<path d="M328 122H355.5" stroke="#5C77AD" stroke-linecap="round"/>
<rect x="323.5" y="144.5" width="36" height="5" fill="white" stroke="#5C77AD"/>
<rect x="274.5" y="97.5" width="28" height="48" stroke="#5C77AD"/>
<path d="M289 98V145.5" stroke="#5C77AD" stroke-linecap="round"/>
<path d="M275 122H302.5" stroke="#5C77AD" stroke-linecap="round"/>
<rect x="270.5" y="144.5" width="36" height="5" fill="white" stroke="#5C77AD"/>
<path opacity="0.5" d="M223.5 66.5V66.5C225.656 68.6557 226.454 71.8209 225.578 74.741L225.5 75" stroke="#5C77AD" stroke-linecap="round"/>
<path opacity="0.5" d="M293.276 4.60181V4.60181C291.547 8.72644 285.642 8.76139 284 4.60181V4.60181" stroke="#5C77AD" stroke-linecap="round"/>
<rect x="103" y="133" width="27" height="47" fill="white" stroke="#3C4F76" stroke-width="2"/>
<path d="M117 133V180.5" stroke="#3C4F76" stroke-width="2" stroke-linecap="round"/>
<path d="M103 157H130.5" stroke="#3C4F76" stroke-width="2" stroke-linecap="round"/>
<rect x="99" y="180" width="35" height="4" fill="#3C4F76" stroke="#3C4F76" stroke-width="2"/>
<rect x="172" y="133" width="27" height="47" fill="white" stroke="#3C4F76" stroke-width="2"/>
<path d="M186 133V180.5" stroke="#3C4F76" stroke-width="2" stroke-linecap="round"/>
<path d="M172 157H199.5" stroke="#3C4F76" stroke-width="2" stroke-linecap="round"/>
<rect x="168" y="180" width="35" height="4" fill="#3C4F76" stroke="#3C4F76" stroke-width="2"/>
<rect x="99" y="201" width="105" height="69" fill="#E5E5E5" stroke="#5C77AD" stroke-width="2"/>
<path d="M98 208H205" stroke="#5C77AD" stroke-linecap="round"/>
<path d="M98 215H205" stroke="#5C77AD" stroke-linecap="round"/>
<path d="M98 222H205" stroke="#5C77AD" stroke-linecap="round"/>
<path d="M98 229H205" stroke="#5C77AD" stroke-linecap="round"/>
<path d="M98 236H205" stroke="#5C77AD" stroke-linecap="round"/>
<path d="M98 243H205" stroke="#5C77AD" stroke-linecap="round"/>
<path d="M98 250H205" stroke="#5C77AD" stroke-linecap="round"/>
<path d="M98 257H205" stroke="#5C77AD" stroke-linecap="round"/>
<path d="M98 264H205" stroke="#5C77AD" stroke-linecap="round"/>
<path d="M215.386 243.507L219.21 250.007C219.39 250.312 219.718 250.5 220.072 250.5H227.365C227.753 250.5 228.105 250.276 228.27 249.926L231.329 243.426C231.641 242.763 231.157 242 230.424 242H229.506C228.791 242 228.307 241.271 228.584 240.612L231.416 233.888C231.693 233.229 231.209 232.5 230.494 232.5H229.22C228.589 232.5 228.115 231.923 228.239 231.304L229.546 224.772C229.718 223.912 228.778 223.263 228.035 223.728L227.014 224.366C226.486 224.696 225.787 224.468 225.556 223.889L223.149 217.871C222.788 216.971 221.485 217.059 221.25 218L219.802 223.791C219.647 224.411 218.957 224.729 218.385 224.442L216.706 223.603C215.902 223.201 215.018 223.98 215.315 224.828L217.534 231.17C217.762 231.82 217.279 232.5 216.591 232.5H214.656C213.904 232.5 213.421 233.3 213.771 233.966L217.229 240.534C217.579 241.2 217.096 242 216.344 242H216.248C215.475 242 214.994 242.84 215.386 243.507Z" fill="#83C5BE" stroke="#83C5BE" stroke-linecap="round"/>
<path d="M211.27 250.217C211.132 249.592 211.607 249 212.247 249H234.253C234.893 249 235.368 249.592 235.23 250.217L230.674 270.717C230.572 271.174 230.167 271.5 229.698 271.5H216.802C216.333 271.5 215.928 271.174 215.826 270.717L211.27 250.217Z" fill="#3C4F76"/>
<path d="M98.3665 242.565V238.733H72.8167V241.927H68.9843V243.843H65.7906V242.565H60.0419V243.843H55.5707V242.565H50.4607V243.843L44.712 245.759L43.4345 244.482L39.6021 249.592L40.8796 250.869L39.6021 254.702H38.3246V260.45H39.6021L40.8796 264.283L39.6021 265.56L43.4345 270.67L44.712 269.393L49.822 271.309V272.586H55.5707V271.309H59.4031V272.586H65.7906V271.309H68.3455V272.586H74.0942V271.309H77.9267V272.586H83.6754V271.309H87.5078V272.586H93.2565V271.309H97.7277V272.586H103.476V271.309H107.309V272.586H112.419V270.67L115.613 268.754L117.529 270.031L120.723 265.56L119.445 263.644L120.084 260.45H122V254.063H120.084L119.445 250.869L120.723 249.592L116.89 245.12L115.613 246.398L113.058 244.482V241.927H107.309V243.843H103.476V242.565H98.3665Z" fill="black" stroke="black" stroke-linecap="round"/>
<path d="M60.0419 202.963L9.58115 166.555L5.74869 171.026L51.7382 218.932" stroke="black" stroke-width="2" stroke-linecap="round"/>
<path d="M4.4712 169.749L8.9424 165.277L2.55497 164L4.4712 169.749Z" fill="black"/>
<path d="M51.7382 217.654L53.6544 198.492L42.1571 206.796V190.827L31.9372 197.853L33.2147 183.801L24.2722 189.55V177.414L17.2461 182.524V172.304L11.4974 176.775L8.9424 165.277M8.9424 165.277L4.4712 169.749L2.55497 164L8.9424 165.277Z" stroke="black" stroke-linecap="round"/>
<path d="M2.55497 164.639V208.073C2.47026 209.489 0.638737 210.628 0.638737 212.545C0.638737 214.461 4.4712 217.016 6.38743 211.906" stroke="black" stroke-linecap="round"/>
<path fill-rule="evenodd" clip-rule="evenodd" d="M96.4503 223.403V204.131C96.4503 201.369 94.2117 199.131 91.4503 199.131H64.4229C63.691 199.131 63.0175 199.531 62.6671 200.173L48.15 226.788C47.9897 227.082 47.9058 227.411 47.9058 227.746V233.687C47.9058 236.466 50.1724 238.712 52.9516 238.687L117.529 238.094V225.403C117.529 224.299 116.633 223.403 115.529 223.403H96.4503ZM64.6132 205.395L56.2094 223.403H77.8429C78.9475 223.403 79.8429 222.508 79.8429 221.403V206.241C79.8429 205.136 78.9475 204.241 77.8429 204.241H66.4255C65.6485 204.241 64.9418 204.691 64.6132 205.395Z" fill="#FDE849"/>
<path d="M96.4503 223.403V223.903H95.9503V223.403H96.4503ZM62.6671 200.173L63.106 200.413L63.106 200.413L62.6671 200.173ZM48.15 226.788L47.711 226.548L47.711 226.548L48.15 226.788ZM52.9516 238.687L52.9562 239.187L52.9562 239.187L52.9516 238.687ZM117.529 238.094H118.029V238.59L117.533 238.594L117.529 238.094ZM56.2094 223.403V223.903H55.4243L55.7563 223.192L56.2094 223.403ZM64.6132 205.395L64.1601 205.184L64.1601 205.184L64.6132 205.395ZM96.9503 204.131V223.403H95.9503V204.131H96.9503ZM91.4503 198.631C94.4878 198.631 96.9503 201.093 96.9503 204.131H95.9503C95.9503 201.646 93.9355 199.631 91.4503 199.631V198.631ZM64.4229 198.631H91.4503V199.631H64.4229V198.631ZM62.2281 199.934C62.6662 199.131 63.508 198.631 64.4229 198.631V199.631C63.8739 199.631 63.3689 199.931 63.106 200.413L62.2281 199.934ZM47.711 226.548L62.2281 199.934L63.106 200.413L48.5889 227.027L47.711 226.548ZM47.4058 227.746C47.4058 227.327 47.5107 226.916 47.711 226.548L48.5889 227.027C48.4687 227.248 48.4058 227.495 48.4058 227.746H47.4058ZM47.4058 233.687V227.746H48.4058V233.687H47.4058ZM52.9562 239.187C49.8991 239.215 47.4058 236.744 47.4058 233.687H48.4058C48.4058 236.188 50.4457 238.21 52.947 238.187L52.9562 239.187ZM117.533 238.594L52.9562 239.187L52.947 238.187L117.524 237.594L117.533 238.594ZM118.029 225.403V238.094H117.029V225.403H118.029ZM115.529 222.903C116.91 222.903 118.029 224.022 118.029 225.403H117.029C117.029 224.575 116.357 223.903 115.529 223.903V222.903ZM96.4503 222.903H115.529V223.903H96.4503V222.903ZM55.7563 223.192L64.1601 205.184L65.0663 205.607L56.6625 223.615L55.7563 223.192ZM77.8429 223.903H56.2094V222.903H77.8429V223.903ZM80.3429 221.403C80.3429 222.784 79.2236 223.903 77.8429 223.903V222.903C78.6713 222.903 79.3429 222.232 79.3429 221.403H80.3429ZM80.3429 206.241V221.403H79.3429V206.241H80.3429ZM77.8429 203.741C79.2236 203.741 80.3429 204.86 80.3429 206.241H79.3429C79.3429 205.412 78.6713 204.741 77.8429 204.741V203.741ZM66.4255 203.741H77.8429V204.741H66.4255V203.741ZM64.1601 205.184C64.5708 204.303 65.4542 203.741 66.4255 203.741V204.741C65.8428 204.741 65.3127 205.078 65.0663 205.607L64.1601 205.184Z" fill="black"/>
<circle r="2.55497" transform="matrix(-1 0 0 1 2.55497 204.88)" fill="black"/>
<rect width="67.7068" height="17.8848" rx="8.94241" transform="matrix(-1 0 0 1 113.696 248.314)" fill="#C4C4C4"/>
<circle r="6.38743" transform="matrix(-1 0 0 1 57.4869 257.257)" fill="#9B9B9B"/>
<circle r="6.38743" transform="matrix(-1 0 0 1 57.4869 257.257)" fill="#9B9B9B"/>
<circle r="6.38743" transform="matrix(-1 0 0 1 57.4869 257.257)" fill="#9B9B9B"/>
<circle r="2.55497" transform="matrix(-1 0 0 1 57.4869 257.257)" fill="#9B9B9B"/>
<circle r="2.55497" transform="matrix(-1 0 0 1 57.4869 257.257)" fill="#9B9B9B"/>
<circle r="2.55497" transform="matrix(-1 0 0 1 57.4869 257.257)" fill="#575757"/>
<circle r="6.38743" transform="matrix(-1 0 0 1 80.4817 257.257)" fill="#9B9B9B"/>
<circle r="6.38743" transform="matrix(-1 0 0 1 80.4817 257.257)" fill="#9B9B9B"/>
<circle r="6.38743" transform="matrix(-1 0 0 1 80.4817 257.257)" fill="#9B9B9B"/>
<circle r="2.55497" transform="matrix(-1 0 0 1 80.4817 257.257)" fill="#9B9B9B"/>
<circle r="2.55497" transform="matrix(-1 0 0 1 80.4817 257.257)" fill="#9B9B9B"/>
<circle r="2.55497" transform="matrix(-1 0 0 1 80.4817 257.257)" fill="#575757"/>
<circle r="6.38743" transform="matrix(-1 0 0 1 103.476 257.257)" fill="#9B9B9B"/>
<circle r="6.38743" transform="matrix(-1 0 0 1 103.476 257.257)" fill="#9B9B9B"/>
<circle r="6.38743" transform="matrix(-1 0 0 1 103.476 257.257)" fill="#9B9B9B"/>
<circle r="2.55497" transform="matrix(-1 0 0 1 103.476 257.257)" fill="#9B9B9B"/>
<circle r="2.55497" transform="matrix(-1 0 0 1 103.476 257.257)" fill="#9B9B9B"/>
<circle r="2.55497" transform="matrix(-1 0 0 1 103.476 257.257)" fill="#575757"/>
<rect width="2.55497" height="7.66492" transform="matrix(-1 0 0 1 114.974 215.099)" fill="black"/>
<rect width="2.55497" height="7.66492" transform="matrix(-1 0 0 1 114.974 215.099)" fill="black"/>
<rect width="5.10995" height="2.55497" transform="matrix(-1 0 0 1 116.251 212.544)" fill="black"/>
<rect width="5.10995" height="2.55497" transform="matrix(-1 0 0 1 116.251 212.544)" fill="black"/>
</svg>
