<svg width="101" height="36" viewBox="0 0 101 36" fill="none" xmlns="http://www.w3.org/2000/svg">
<g clip-path="url(#clip0_35_544)">
<path d="M30.1186 24V13.8182H33.7479C34.54 13.8182 35.1963 13.9624 35.7166 14.2507C36.237 14.5391 36.6264 14.9335 36.8849 15.4339C37.1435 15.9311 37.2727 16.4912 37.2727 17.1143C37.2727 17.7408 37.1418 18.3042 36.88 18.8047C36.6214 19.3018 36.2304 19.6963 35.7067 19.9879C35.1863 20.2763 34.5317 20.4205 33.7429 20.4205H31.2472V19.1179H33.6037C34.1042 19.1179 34.5102 19.0317 34.8217 18.8594C35.1333 18.6837 35.362 18.4451 35.5078 18.1435C35.6536 17.8419 35.7266 17.4988 35.7266 17.1143C35.7266 16.7299 35.6536 16.3885 35.5078 16.0902C35.362 15.7919 35.1316 15.5582 34.8168 15.3892C34.5052 15.2202 34.0942 15.1357 33.5838 15.1357H31.6548V24H30.1186ZM42.3599 24.1541C41.6075 24.1541 40.9595 23.9934 40.416 23.6719C39.8757 23.3471 39.4581 22.8913 39.1631 22.3047C38.8715 21.7147 38.7256 21.0237 38.7256 20.2315C38.7256 19.4493 38.8715 18.7599 39.1631 18.1634C39.4581 17.5668 39.8691 17.1011 40.3961 16.7663C40.9264 16.4316 41.5462 16.2642 42.2555 16.2642C42.6863 16.2642 43.1039 16.3355 43.5083 16.478C43.9127 16.6205 44.2756 16.8442 44.5971 17.1491C44.9186 17.4541 45.1721 17.8501 45.3577 18.3374C45.5433 18.8213 45.6361 19.4096 45.6361 20.1023V20.6293H39.5658V19.5156H44.1795C44.1795 19.1245 44.0999 18.7782 43.9408 18.4766C43.7817 18.1716 43.558 17.9313 43.2697 17.7557C42.9846 17.58 42.6499 17.4922 42.2654 17.4922C41.8478 17.4922 41.4832 17.5949 41.1716 17.8004C40.8634 18.0026 40.6248 18.2678 40.4557 18.5959C40.29 18.9207 40.2072 19.2737 40.2072 19.6548V20.5249C40.2072 21.0353 40.2966 21.4695 40.4756 21.8274C40.6579 22.1854 40.9115 22.4588 41.2363 22.6477C41.5611 22.8333 41.9406 22.9261 42.3748 22.9261C42.6565 22.9261 42.9134 22.8864 43.1454 22.8068C43.3774 22.724 43.5779 22.6013 43.7469 22.4389C43.916 22.2765 44.0452 22.076 44.1347 21.8374L45.5417 22.0909C45.429 22.5052 45.2268 22.8681 44.9351 23.1797C44.6468 23.4879 44.2839 23.7282 43.8464 23.9006C43.4122 24.0696 42.9167 24.1541 42.3599 24.1541ZM47.4955 24V16.3636H48.9323V17.5767H49.0118C49.151 17.1657 49.3963 16.8426 49.7476 16.6072C50.1022 16.3686 50.5033 16.2493 50.9507 16.2493C51.0435 16.2493 51.1529 16.2526 51.2788 16.2592C51.4081 16.2659 51.5092 16.2741 51.5821 16.2841V17.706C51.5225 17.6894 51.4164 17.6712 51.2639 17.6513C51.1115 17.6281 50.959 17.6165 50.8065 17.6165C50.4552 17.6165 50.142 17.6911 49.8669 17.8402C49.5951 17.986 49.3797 18.1899 49.2206 18.4517C49.0615 18.7102 48.982 19.0052 48.982 19.3366V24H47.4955ZM53.0785 24V16.3636H54.5054V17.6065H54.5998C54.7589 17.1856 55.0191 16.8575 55.3804 16.6222C55.7416 16.3835 56.1742 16.2642 56.6779 16.2642C57.1884 16.2642 57.6159 16.3835 57.9606 16.6222C58.3086 16.8608 58.5655 17.1889 58.7312 17.6065H58.8108C58.993 17.1989 59.2831 16.8741 59.6808 16.6321C60.0785 16.3868 60.5525 16.2642 61.1027 16.2642C61.7954 16.2642 62.3605 16.4813 62.798 16.9155C63.2388 17.3497 63.4592 18.0043 63.4592 18.8793V24H61.9727V19.0185C61.9727 18.5014 61.8318 18.1269 61.5501 17.8949C61.2684 17.6629 60.932 17.5469 60.5409 17.5469C60.057 17.5469 59.6808 17.696 59.4123 17.9943C59.1438 18.2893 59.0096 18.6688 59.0096 19.1328V24H57.5281V18.924C57.5281 18.5097 57.3988 18.1766 57.1403 17.9247C56.8818 17.6728 56.5454 17.5469 56.1311 17.5469C55.8493 17.5469 55.5892 17.6214 55.3505 17.7706C55.1152 17.9164 54.9246 18.1203 54.7788 18.3821C54.6363 18.6439 54.565 18.9472 54.565 19.2919V24H53.0785ZM65.6616 24V16.3636H67.1481V24H65.6616ZM66.4123 15.1854C66.1537 15.1854 65.9317 15.0992 65.7461 14.9268C65.5638 14.7512 65.4726 14.5424 65.4726 14.3004C65.4726 14.0552 65.5638 13.8464 65.7461 13.674C65.9317 13.4983 66.1537 13.4105 66.4123 13.4105C66.6708 13.4105 66.8912 13.4983 67.0735 13.674C67.2591 13.8464 67.3519 14.0552 67.3519 14.3004C67.3519 14.5424 67.2591 14.7512 67.0735 14.9268C66.8912 15.0992 66.6708 15.1854 66.4123 15.1854ZM72.9225 16.3636V17.5568H68.7513V16.3636H72.9225ZM69.87 14.5341H71.3565V21.7578C71.3565 22.0462 71.3995 22.2633 71.4857 22.4091C71.5719 22.5516 71.6829 22.6494 71.8188 22.7024C71.958 22.7521 72.1088 22.777 72.2712 22.777C72.3906 22.777 72.495 22.7687 72.5844 22.7521C72.6739 22.7356 72.7435 22.7223 72.7933 22.7124L73.0617 23.9403C72.9755 23.9735 72.8529 24.0066 72.6938 24.0398C72.5347 24.0762 72.3359 24.0961 72.0972 24.0994C71.7061 24.1061 71.3415 24.0365 71.0035 23.8906C70.6654 23.7448 70.392 23.5194 70.1832 23.2145C69.9744 22.9096 69.87 22.5268 69.87 22.0661V14.5341ZM74.9558 24V16.3636H75.8458V24H74.9558ZM75.4083 15.0511C75.226 15.0511 75.0702 14.9898 74.9409 14.8672C74.8117 14.7412 74.747 14.5904 74.747 14.4148C74.747 14.2391 74.8117 14.09 74.9409 13.9673C75.0702 13.8414 75.226 13.7784 75.4083 13.7784C75.5906 13.7784 75.7463 13.8414 75.8756 13.9673C76.0048 14.09 76.0695 14.2391 76.0695 14.4148C76.0695 14.5904 76.0048 14.7412 75.8756 14.8672C75.7463 14.9898 75.5906 15.0511 75.4083 15.0511ZM84.3074 16.3636L81.5183 24H80.5737L77.7846 16.3636H78.7441L81.0112 22.8317H81.0808L83.3478 16.3636H84.3074ZM86.2587 24V16.3636H87.1486V24H86.2587ZM86.7111 15.0511C86.5288 15.0511 86.373 14.9898 86.2437 14.8672C86.1145 14.7412 86.0499 14.5904 86.0499 14.4148C86.0499 14.2391 86.1145 14.09 86.2437 13.9673C86.373 13.8414 86.5288 13.7784 86.7111 13.7784C86.8934 13.7784 87.0491 13.8414 87.1784 13.9673C87.3077 14.09 87.3723 14.2391 87.3723 14.4148C87.3723 14.5904 87.3077 14.7412 87.1784 14.8672C87.0491 14.9898 86.8934 15.0511 86.7111 15.0511ZM92.7068 16.3636V17.1342H89.0626V16.3636H92.7068ZM90.2011 14.5341H91.091V22.0064C91.091 22.3246 91.1457 22.5748 91.2551 22.7571C91.3644 22.9361 91.507 23.0637 91.6826 23.1399C91.8583 23.2128 92.0455 23.2493 92.2444 23.2493C92.3604 23.2493 92.4598 23.2427 92.5427 23.2294C92.6256 23.2128 92.6985 23.1963 92.7614 23.1797L92.9504 23.9801C92.8642 24.0133 92.7581 24.0431 92.6322 24.0696C92.5062 24.0994 92.3505 24.1143 92.1649 24.1143C91.84 24.1143 91.5268 24.0431 91.2252 23.9006C90.9269 23.758 90.6817 23.5459 90.4894 23.2642C90.2972 22.9825 90.2011 22.6328 90.2011 22.2152V14.5341ZM95.543 26.8636C95.3673 26.8636 95.2033 26.8471 95.0508 26.8139C94.8984 26.7808 94.7774 26.7443 94.6879 26.7045L94.9265 25.924C95.2281 26.0168 95.4966 26.05 95.7319 26.0234C95.9672 26.0002 96.1761 25.8942 96.3583 25.7053C96.5406 25.5196 96.703 25.2346 96.8456 24.8501L97.124 24.0746L94.315 16.3636H95.2745L97.5416 22.8317H97.6112L99.8782 16.3636H100.838L97.6062 25.2081C97.4703 25.576 97.3029 25.8826 97.1041 26.1278C96.9052 26.3764 96.6749 26.5604 96.413 26.6797C96.1545 26.8023 95.8645 26.8636 95.543 26.8636Z" fill="white"/>
<path d="M2 26V15.5806L11.6508 9L21 15.5806V26H2Z" stroke="white" stroke-width="2"/>
</g>
<defs>
<clipPath id="clip0_35_544">
<rect width="101" height="36" fill="white" transform="matrix(1 0 0 -1 0 36)"/>
</clipPath>
</defs>
</svg>
